# xmcd
#
# Track frame offsets:
#	150
#	19653
#	33779
#	46143
#	60001
#	75463
#	87555
#	98304
#	109583
#	125058
#	134981
#	153657
#	170978
#	187482
#	202076
#	218451
#	234924
#	245836
#	258048
#	266578
#
# Disc length: 3838 seconds
#
# Revision: 1
# Processed by: cddbd v1.5.2PL0 Copyright (c) Steve Scherf et al.
# Submitted via: audiograbber 1.83.01
#
DISCID=140efc14
DTITLE=Duet-Seklimova-&-Zelceski - Zapisano u vremenu CD3
DYEAR=1900
DGENRE=
TTITLE0=Sestra Brata Kani
TTITLE1=Belo Lice
TTITLE2=Snosti Sakav Da Ti Dojdam
TTITLE3=Na Srce Mi Lezi
TTITLE4=More Sokol Pie
TTITLE5=Ceresna Se Od Koren Kornese
TTITLE6=Dafino Vino Crveno
TTITLE7=Digni Si Mare Ocite
TTITLE8=Mi Tovaril Donco
TTITLE9=Moze Li Cvece Bez Voda
TTITLE10=Bog Da Bie Koj Prv Pojde
TTITLE11=Dojdi Sine
TTITLE12=Mamo Koj Cuka
TTITLE13=Marija Dilber Bela Marija
TTITLE14=Na Visokata Planina
TTITLE15=Pesna Igra Tamburi
TTITLE16=Slavej Pilea
TTITLE17=Trgna Mi Lenka
TTITLE18=Tri Godini Stanaa
TTITLE19=Vecna Ljubov
EXTD=
EXTT0=
EXTT1=
EXTT2=
EXTT3=
EXTT4=
EXTT5=
EXTT6=
EXTT7=
EXTT8=
EXTT9=
EXTT10=
EXTT11=
EXTT12=
EXTT13=
EXTT14=
EXTT15=
EXTT16=
EXTT17=
EXTT18=
EXTT19=
PLAYORDER=
